<svg width="224" height="200" viewBox="0 0 224 200" fill="none" xmlns="http://www.w3.org/2000/svg">
<path d="M224 100.023C224 85.1453 205.417 71.046 176.926 62.3026C183.501 33.1884 180.579 10.0252 167.703 2.60929C164.735 0.869763 161.265 0.0457764 157.476 0.0457764V10.2541C159.576 10.2541 161.265 10.6661 162.681 11.4443C168.89 15.0149 171.584 28.6107 169.484 46.0975C168.982 50.4005 168.16 54.9325 167.155 59.556C158.206 57.3587 148.435 55.6649 138.162 54.5663C131.998 46.0975 125.606 38.407 119.168 31.6777C134.053 17.8073 148.024 10.2083 157.521 10.2083V0C144.965 0 128.528 8.97231 111.909 24.5365C95.289 9.06386 78.852 0.183109 66.296 0.183109V10.3914C75.7473 10.3914 89.7644 17.9446 104.649 31.7235C98.2568 38.4527 91.8647 46.0975 85.7921 54.5663C75.4733 55.6649 65.7024 57.3587 56.7534 59.6017C55.7032 55.024 54.927 50.5837 54.3791 46.3264C52.2332 28.8395 54.8814 15.2438 61.0453 11.6274C62.415 10.8034 64.1957 10.4372 66.296 10.4372V0.228885C62.4607 0.228885 58.9906 1.05287 55.9772 2.7924C43.1472 10.2083 40.2707 33.3257 46.8912 62.3484C18.4916 71.1376 0 85.1911 0 100.023C0 114.9 18.583 129 47.0738 137.743C40.499 166.857 43.4211 190.021 56.2968 197.436C59.2646 199.176 62.7346 200 66.5699 200C79.126 200 95.563 191.028 112.183 175.463C128.802 190.936 145.239 199.817 157.795 199.817C161.631 199.817 165.101 198.993 168.114 197.253C180.944 189.837 183.821 166.72 177.2 137.697C205.508 128.954 224 114.855 224 100.023ZM164.553 69.4896C162.863 75.3948 160.763 81.4832 158.389 87.5715C156.517 83.9094 154.554 80.2472 152.408 76.585C150.307 72.9229 148.07 69.3522 145.833 65.8732C152.316 66.8345 158.572 68.0247 164.553 69.4896ZM143.641 118.242C140.08 124.422 136.427 130.282 132.638 135.729C125.834 136.324 118.94 136.645 112 136.645C105.106 136.645 98.2112 136.324 91.4537 135.775C87.6641 130.327 83.9658 124.514 80.4044 118.379C76.9344 112.383 73.7839 106.294 70.9075 100.16C73.7383 94.0261 76.9344 87.892 80.3588 81.8952C83.9201 75.7153 87.5728 69.8558 91.3624 64.4083C98.1655 63.8132 105.06 63.4928 112 63.4928C118.894 63.4928 125.789 63.8132 132.546 64.3626C136.336 69.81 140.034 75.6237 143.596 81.7578C147.066 87.7546 150.216 93.843 153.093 99.9771C150.216 106.111 147.066 112.245 143.641 118.242ZM158.389 112.291C160.854 118.425 162.955 124.559 164.69 130.51C158.709 131.975 152.408 133.211 145.879 134.173C148.116 130.648 150.353 127.031 152.453 123.323C154.554 119.661 156.517 115.953 158.389 112.291ZM112.091 161.135C107.845 156.741 103.599 151.843 99.3983 146.487C103.508 146.67 107.708 146.807 111.954 146.807C116.246 146.807 120.492 146.715 124.647 146.487C120.538 151.843 116.292 156.741 112.091 161.135ZM78.1215 134.173C71.638 133.211 65.3828 132.021 59.4015 130.556C61.0909 124.651 63.1912 118.563 65.5654 112.474C67.4374 116.136 69.4007 119.799 71.5467 123.461C73.6926 127.123 75.8842 130.694 78.1215 134.173ZM111.863 38.9105C116.109 43.3051 120.355 48.2033 124.556 53.5592C120.447 53.3761 116.246 53.2387 112 53.2387C107.708 53.2387 103.462 53.3303 99.307 53.5592C103.416 48.2033 107.662 43.3051 111.863 38.9105ZM78.0758 65.8732C75.8386 69.398 73.6013 73.0144 71.501 76.7224C69.4007 80.3845 67.4374 84.0467 65.5654 87.7089C63.0999 81.5747 60.9996 75.4406 59.2646 69.4896C65.2458 68.0705 71.5467 66.8345 78.0758 65.8732ZM36.755 123.186C20.5919 116.274 10.1362 107.21 10.1362 100.023C10.1362 92.8359 20.5919 83.7262 36.755 76.8597C40.6816 75.1659 44.9735 73.6553 49.4024 72.2362C52.0049 81.2085 55.4293 90.547 59.6755 100.114C55.4749 109.636 52.0962 118.929 49.5393 127.855C45.0192 126.436 40.7273 124.88 36.755 123.186ZM61.3192 188.602C55.1097 185.031 52.4158 171.435 54.5161 153.948C55.0184 149.645 55.8402 145.113 56.8447 140.49C65.7937 142.687 75.5646 144.381 85.8378 145.48C92.0016 153.948 98.3938 161.639 104.832 168.368C89.947 182.238 75.9755 189.837 66.4786 189.837C64.424 189.792 62.689 189.38 61.3192 188.602ZM169.621 153.719C171.767 171.206 169.119 184.802 162.955 188.418C161.585 189.242 159.804 189.609 157.704 189.609C148.253 189.609 134.236 182.055 119.351 168.276C125.743 161.547 132.135 153.902 138.208 145.434C148.527 144.335 158.298 142.641 167.247 140.398C168.297 145.022 169.119 149.462 169.621 153.719ZM187.199 123.186C183.273 124.88 178.981 126.39 174.552 127.81C171.949 118.837 168.525 109.499 164.279 99.9313C168.479 90.4097 171.858 81.117 174.415 72.1904C178.935 73.6095 183.227 75.1659 187.245 76.8597C203.408 83.772 213.864 92.8359 213.864 100.023C213.818 107.21 203.362 116.32 187.199 123.186Z" fill="#61DAFB"/>
<path d="M111.954 120.943C123.478 120.943 132.82 111.577 132.82 100.023C132.82 88.469 123.478 79.1028 111.954 79.1028C100.43 79.1028 91.0884 88.469 91.0884 100.023C91.0884 111.577 100.43 120.943 111.954 120.943Z" fill="#61DAFB"/>
</svg>
